<mxfile host="app.diagrams.net" modified="2023-01-14T21:04:30.508Z" agent="5.0 (Windows NT 10.0; Win64; x64) AppleWebKit/537.36 (KHTML, like Gecko) Chrome/108.0.0.0 Safari/537.36" version="20.8.5" etag="iXa-ZJqwqI0U2z5VhZ-V" type="github">
  <diagram id="UDTJSXIXcIyuYqR2f4gh" name="Page-1">
    <mxGraphModel dx="794" dy="480" grid="1" gridSize="10" guides="1" tooltips="1" connect="1" arrows="1" fold="1" page="1" pageScale="1" pageWidth="827" pageHeight="1169" math="0" shadow="0">
      <root>
        <mxCell id="0" />
        <mxCell id="1" parent="0" />
        <mxCell id="ERFni9ZfpaZuqH1B-qTp-6" value="" style="edgeStyle=orthogonalEdgeStyle;rounded=0;orthogonalLoop=1;jettySize=auto;html=1;" edge="1" parent="1" source="ERFni9ZfpaZuqH1B-qTp-1" target="ERFni9ZfpaZuqH1B-qTp-2">
          <mxGeometry relative="1" as="geometry" />
        </mxCell>
        <mxCell id="ERFni9ZfpaZuqH1B-qTp-1" value="Start" style="rounded=1;whiteSpace=wrap;html=1;" vertex="1" parent="1">
          <mxGeometry x="280" y="10" width="170" height="30" as="geometry" />
        </mxCell>
        <mxCell id="ERFni9ZfpaZuqH1B-qTp-7" value="" style="edgeStyle=orthogonalEdgeStyle;rounded=0;orthogonalLoop=1;jettySize=auto;html=1;" edge="1" parent="1" source="ERFni9ZfpaZuqH1B-qTp-2" target="ERFni9ZfpaZuqH1B-qTp-3">
          <mxGeometry relative="1" as="geometry" />
        </mxCell>
        <mxCell id="ERFni9ZfpaZuqH1B-qTp-2" value="Generate (or input) a word" style="rounded=1;whiteSpace=wrap;html=1;" vertex="1" parent="1">
          <mxGeometry x="280" y="60" width="170" height="30" as="geometry" />
        </mxCell>
        <mxCell id="ERFni9ZfpaZuqH1B-qTp-8" value="" style="edgeStyle=orthogonalEdgeStyle;rounded=0;orthogonalLoop=1;jettySize=auto;html=1;" edge="1" parent="1" source="ERFni9ZfpaZuqH1B-qTp-3" target="ERFni9ZfpaZuqH1B-qTp-5">
          <mxGeometry relative="1" as="geometry" />
        </mxCell>
        <mxCell id="ERFni9ZfpaZuqH1B-qTp-3" value="Genetate as many blanks as letters in the word" style="rounded=1;whiteSpace=wrap;html=1;" vertex="1" parent="1">
          <mxGeometry x="280" y="110" width="170" height="50" as="geometry" />
        </mxCell>
        <mxCell id="ERFni9ZfpaZuqH1B-qTp-12" value="Yes" style="edgeStyle=orthogonalEdgeStyle;rounded=0;orthogonalLoop=1;jettySize=auto;html=1;" edge="1" parent="1" source="ERFni9ZfpaZuqH1B-qTp-4" target="ERFni9ZfpaZuqH1B-qTp-10">
          <mxGeometry x="0.4359" y="-20" relative="1" as="geometry">
            <Array as="points">
              <mxPoint x="240" y="305" />
            </Array>
            <mxPoint as="offset" />
          </mxGeometry>
        </mxCell>
        <mxCell id="ERFni9ZfpaZuqH1B-qTp-14" value="No" style="edgeStyle=orthogonalEdgeStyle;rounded=0;orthogonalLoop=1;jettySize=auto;html=1;" edge="1" parent="1" source="ERFni9ZfpaZuqH1B-qTp-4" target="ERFni9ZfpaZuqH1B-qTp-13">
          <mxGeometry x="0.5111" y="20" relative="1" as="geometry">
            <Array as="points">
              <mxPoint x="500" y="305" />
              <mxPoint x="500" y="355" />
              <mxPoint x="499" y="355" />
            </Array>
            <mxPoint as="offset" />
          </mxGeometry>
        </mxCell>
        <mxCell id="ERFni9ZfpaZuqH1B-qTp-4" value="If the letter in the word?" style="rhombus;whiteSpace=wrap;html=1;" vertex="1" parent="1">
          <mxGeometry x="275" y="265" width="180" height="80" as="geometry" />
        </mxCell>
        <mxCell id="ERFni9ZfpaZuqH1B-qTp-9" value="" style="edgeStyle=orthogonalEdgeStyle;rounded=0;orthogonalLoop=1;jettySize=auto;html=1;" edge="1" parent="1" source="ERFni9ZfpaZuqH1B-qTp-5" target="ERFni9ZfpaZuqH1B-qTp-4">
          <mxGeometry relative="1" as="geometry" />
        </mxCell>
        <mxCell id="ERFni9ZfpaZuqH1B-qTp-5" value="Ask the user to guess the letter" style="rounded=1;whiteSpace=wrap;html=1;" vertex="1" parent="1">
          <mxGeometry x="280" y="175" width="170" height="40" as="geometry" />
        </mxCell>
        <mxCell id="ERFni9ZfpaZuqH1B-qTp-21" value="" style="edgeStyle=orthogonalEdgeStyle;rounded=0;orthogonalLoop=1;jettySize=auto;html=1;" edge="1" parent="1" source="ERFni9ZfpaZuqH1B-qTp-10" target="ERFni9ZfpaZuqH1B-qTp-20">
          <mxGeometry relative="1" as="geometry" />
        </mxCell>
        <mxCell id="ERFni9ZfpaZuqH1B-qTp-10" value="Replace blank to a letter" style="rounded=1;whiteSpace=wrap;html=1;" vertex="1" parent="1">
          <mxGeometry x="150" y="365" width="170" height="40" as="geometry" />
        </mxCell>
        <mxCell id="ERFni9ZfpaZuqH1B-qTp-16" value="" style="edgeStyle=orthogonalEdgeStyle;rounded=0;orthogonalLoop=1;jettySize=auto;html=1;" edge="1" parent="1" source="ERFni9ZfpaZuqH1B-qTp-13" target="ERFni9ZfpaZuqH1B-qTp-15">
          <mxGeometry relative="1" as="geometry" />
        </mxCell>
        <mxCell id="ERFni9ZfpaZuqH1B-qTp-13" value="Paint Hangman part" style="rounded=1;whiteSpace=wrap;html=1;" vertex="1" parent="1">
          <mxGeometry x="414" y="375" width="170" height="30" as="geometry" />
        </mxCell>
        <mxCell id="ERFni9ZfpaZuqH1B-qTp-17" value="No" style="edgeStyle=orthogonalEdgeStyle;rounded=0;orthogonalLoop=1;jettySize=auto;html=1;entryX=1;entryY=0.5;entryDx=0;entryDy=0;" edge="1" parent="1" source="ERFni9ZfpaZuqH1B-qTp-15" target="ERFni9ZfpaZuqH1B-qTp-5">
          <mxGeometry x="-0.124" y="-10" relative="1" as="geometry">
            <Array as="points">
              <mxPoint x="630" y="490" />
              <mxPoint x="630" y="195" />
            </Array>
            <mxPoint as="offset" />
          </mxGeometry>
        </mxCell>
        <mxCell id="ERFni9ZfpaZuqH1B-qTp-19" value="Yes" style="edgeStyle=orthogonalEdgeStyle;rounded=0;orthogonalLoop=1;jettySize=auto;html=1;" edge="1" parent="1" source="ERFni9ZfpaZuqH1B-qTp-15" target="ERFni9ZfpaZuqH1B-qTp-18">
          <mxGeometry y="-20" relative="1" as="geometry">
            <Array as="points">
              <mxPoint x="500" y="565" />
            </Array>
            <mxPoint as="offset" />
          </mxGeometry>
        </mxCell>
        <mxCell id="ERFni9ZfpaZuqH1B-qTp-15" value="Is the hangman built?" style="rhombus;whiteSpace=wrap;html=1;" vertex="1" parent="1">
          <mxGeometry x="411.5" y="455" width="175" height="70" as="geometry" />
        </mxCell>
        <mxCell id="ERFni9ZfpaZuqH1B-qTp-18" value="Game over" style="rounded=1;whiteSpace=wrap;html=1;" vertex="1" parent="1">
          <mxGeometry x="282.5" y="555" width="172.5" height="30" as="geometry" />
        </mxCell>
        <mxCell id="ERFni9ZfpaZuqH1B-qTp-22" value="No" style="edgeStyle=orthogonalEdgeStyle;rounded=0;orthogonalLoop=1;jettySize=auto;html=1;entryX=0;entryY=0.5;entryDx=0;entryDy=0;" edge="1" parent="1" source="ERFni9ZfpaZuqH1B-qTp-20" target="ERFni9ZfpaZuqH1B-qTp-5">
          <mxGeometry x="0.07" y="10" relative="1" as="geometry">
            <Array as="points">
              <mxPoint x="130" y="475" />
              <mxPoint x="130" y="195" />
            </Array>
            <mxPoint as="offset" />
          </mxGeometry>
        </mxCell>
        <mxCell id="ERFni9ZfpaZuqH1B-qTp-23" value="Yes" style="edgeStyle=orthogonalEdgeStyle;rounded=0;orthogonalLoop=1;jettySize=auto;html=1;entryX=0;entryY=0.5;entryDx=0;entryDy=0;" edge="1" parent="1" source="ERFni9ZfpaZuqH1B-qTp-20" target="ERFni9ZfpaZuqH1B-qTp-18">
          <mxGeometry x="0.3168" y="15" relative="1" as="geometry">
            <Array as="points">
              <mxPoint x="235" y="570" />
            </Array>
            <mxPoint as="offset" />
          </mxGeometry>
        </mxCell>
        <mxCell id="ERFni9ZfpaZuqH1B-qTp-20" value="Are all letters guessed" style="rhombus;whiteSpace=wrap;html=1;" vertex="1" parent="1">
          <mxGeometry x="152.5" y="445" width="165" height="80" as="geometry" />
        </mxCell>
        <mxCell id="ERFni9ZfpaZuqH1B-qTp-24" style="edgeStyle=orthogonalEdgeStyle;rounded=0;orthogonalLoop=1;jettySize=auto;html=1;exitX=0.5;exitY=1;exitDx=0;exitDy=0;" edge="1" parent="1" source="ERFni9ZfpaZuqH1B-qTp-13" target="ERFni9ZfpaZuqH1B-qTp-13">
          <mxGeometry relative="1" as="geometry" />
        </mxCell>
      </root>
    </mxGraphModel>
  </diagram>
</mxfile>
